<?xml version="1.0" encoding="UTF-8"?>
<svg width="900px" height="183px" viewBox="0 0 900 183" version="1.1" xmlns="http://www.w3.org/2000/svg" xmlns:xlink="http://www.w3.org/1999/xlink">
    <!-- Generator: Sketch 63.1 (92452) - https://sketch.com -->
    <title>aceninja-logo-white</title>
    <desc>Created with Sketch.</desc>
    <g id="Page-1" stroke="none" stroke-width="1" fill="none" fill-rule="evenodd">
        <g id="aceninja-logo-white" fill="#000000" fill-rule="nonzero">
            <path d="M676.677763,16.3264706 C679.931425,11.2251961 682.250333,5.62754902 685.036618,0.287058824 C686.067244,2.63735294 686.29494,5.20892157 686.486684,7.73862745 C687.816911,23.455098 685.899467,39.4466667 680.584554,54.3079412 C677.618509,62.6505882 673.74767,70.6643137 669.121838,78.2115686 C668.29494,79.5810784 667.378162,80.9386275 667.018642,82.5234314 C666.515313,84.7182353 666.898802,86.9728431 666.964714,89.1855882 C667.360186,99.5256863 664.92743,110.021275 659.648469,118.95598 C658.737683,120.498922 657.593209,122.269118 658.228362,124.12902 C659.169108,126.760392 660.768975,129.086765 662.183089,131.478922 C670.985353,145.712255 683.82024,157.326176 698.686418,165.01098 C701.8502,166.793137 705.319574,167.983235 708.447403,169.819216 C708.489348,170.112255 708.561252,170.698333 708.597204,170.991373 C698.093209,171.445882 687.51731,172.289118 677.049268,170.865784 C657.98269,168.497549 640.01265,160.43 624.295606,149.60549 C622.40213,148.271863 620.304927,146.932255 617.90213,146.962157 C614.462716,146.950196 611.041278,147.500392 607.607856,147.189412 C598.535952,146.752843 589.643808,143.906176 581.920107,139.169706 C580.404128,138.141078 578.342876,137.871961 576.826897,139.032157 C561.493342,149.731078 550.515979,165.704706 543.589214,182.874412 C542.732357,172.199412 541.180426,161.458627 542.630493,150.753725 C544.164447,137.190196 548.76032,124.123039 555.063915,112.060588 C556.160453,110.063137 556.98735,107.754706 556.460053,105.458235 C555.70506,101.846078 555.045939,98.2040196 554.878162,94.5141176 C554.069241,82.8762745 557.197071,71.0590196 563.476698,61.2392157 C564.429427,59.7979412 565.525965,57.95 564.459387,56.257549 C554.90213,39.4705882 539.388815,26.5110784 521.892144,18.5451961 C519.926764,17.5883333 517.751664,16.8467647 516.253662,15.1842157 C524.139148,14.9868627 532.018642,14.305098 539.916112,14.502451 C560.564581,15.1184314 580.38016,22.875 597.661119,33.825098 C599.836218,35.350098 602.532623,35.8703922 605.151132,35.517549 C618.111851,34.2556863 631.557923,37.4312745 642.235686,44.9605882 C643.58988,45.8636275 645.213715,47.245098 646.945406,46.4377451 C659.151132,39.0519608 669.373502,28.5563725 676.677763,16.3264706 L676.677763,16.3264706 Z M606.085885,70.425098 C601.62783,71.4118627 597.535286,73.8937255 594.593209,77.3802941 C588.223702,84.6823529 587.810253,96.3620588 593.766312,104.028922 C599.45273,111.893137 610.80759,114.895294 619.609854,110.732941 C628.951398,106.720098 634.47004,95.5068627 631.474035,85.7169608 C628.735686,75.0060784 616.889481,67.7757843 606.085885,70.425098 Z" id="Shape"></path>
            <path d="M133.591877,13.8027451 C142.232357,6.41696078 153.539281,2.76892157 164.762317,1.93764706 C175.919441,1.31568627 187.436085,2.09313725 197.838216,6.47676471 C205.442077,9.80186275 212.560586,14.8373529 217.126498,21.8702941 C220.547936,27.115098 221.914115,33.3526471 222.818908,39.4586275 C224.688415,52.7291176 224.173103,66.1730392 224.250999,79.5332353 C209.372836,79.5392157 194.488682,79.5392157 179.610519,79.5332353 C179.610519,70.3652941 179.610519,61.1973529 179.610519,52.0234314 C179.604527,46.5573529 179.688415,41.037451 178.735686,35.6311765 C178.436085,33.4543137 176.956059,31.4329412 174.739015,30.9305882 C172.13249,30.3863725 169.112517,30.362451 166.871505,31.9891176 C165.049933,33.3167647 164.636485,35.6909804 164.288948,37.7661765 C163.647803,42.4847059 163.557923,47.2630392 163.581891,52.017451 C163.593875,79.3418627 163.569907,106.666275 163.593875,133.990686 C163.791611,138.31451 163.731691,142.74598 165.085885,146.902353 C166.61984,150.81951 171.89281,151.363725 175.32024,149.862647 C178.561917,148.319706 178.771638,144.282941 179.149134,141.185098 C180.023968,129.828333 179.442743,118.429706 179.610519,107.04902 C194.488682,107.04902 209.372836,107.04902 224.250999,107.055 C224.286951,117.873529 224.233023,128.727941 222.962716,139.486667 C222.159787,145.688333 221.063249,152.075392 217.731691,157.493627 C213.465379,164.472745 206.838216,169.72951 199.683755,173.53902 C188.424767,179.351961 175.356192,180.141373 162.940746,179.064902 C152.8502,178.11402 142.651798,175.183627 134.538615,168.922157 C128.798269,164.574412 124.543941,158.330882 122.620506,151.399608 C119.516644,140.288039 119.211052,128.668137 118.935419,117.209706 C118.941411,98.8618627 118.941411,80.5140196 118.935419,62.1661765 C119.139148,54.565098 119.169108,46.9460784 120.037949,39.374902 C121.014647,29.5251961 126.17976,20.297451 133.591877,13.8027451 Z" id="Path"></path>
            <path d="M23.2130493,5.38833333 C44.6165113,5.37637255 66.0139814,5.38833333 87.4174434,5.38235294 C95.9320905,62.1960784 104.506658,119.003824 113.003329,175.817549 C97.8195739,175.82951 82.6358189,175.825025 67.4520639,175.825025 C66.7210386,165.650882 65.816245,155.496176 65.1211718,145.323529 C59.8062583,145.323529 54.4913449,145.323529 49.1764314,145.323529 C48.2716378,155.490196 47.3788282,165.650882 46.5459387,175.825025 C31.1824234,175.825025 15.8189081,175.825025 0.46138482,175.825025 C8.05925433,119.015784 15.6151798,62.1960784 23.2130493,5.38833333 L23.2130493,5.38833333 Z M57.1937417,43.4296078 C53.8681758,67.1717647 50.620506,90.9378431 48.5233023,114.823529 C53.6884154,114.817549 58.8475366,114.83549 64.0126498,114.811569 C61.2563249,91.0694118 58.9853529,67.2614706 57.1937417,43.4296078 Z" id="Shape"></path>
            <path d="M240.129827,5.38833333 C264.894807,5.38384804 289.665779,5.38384804 314.430759,5.38833333 C314.430759,16.745098 314.430759,28.1078431 314.430759,39.4646078 C304.496005,39.4765686 294.561252,39.4646078 284.620506,39.4705882 C284.620506,50.2352941 284.620506,61 284.620506,71.7647059 C293.908123,71.7766667 303.201731,71.7467647 312.489348,71.7766667 C312.483356,82.5353922 312.477364,93.2881373 312.489348,104.040882 C303.201731,104.076765 293.908123,104.046863 284.620506,104.058824 C284.620506,116.617647 284.620506,129.176471 284.620506,141.735294 C295.507989,141.747255 306.395473,141.717353 317.282956,141.747255 C317.270972,153.10402 317.276964,164.460784 317.276964,175.817549 C291.565246,175.82951 265.847537,175.824455 240.129827,175.817549 C240.129827,119.009804 240.129827,62.1960784 240.129827,5.38833333 Z" id="Path"></path>
            <path d="M334.204394,5.38833333 C346.625832,5.37637255 359.053262,5.38833333 371.4747,5.38142777 C379.761651,30.7511765 387.970706,56.149902 396.23968,81.5247059 C396.197736,56.1439216 396.233688,30.7631373 396.221704,5.38833333 C408.655126,5.38142777 421.088549,5.37637255 433.521971,5.38833333 C433.521971,62.1960784 433.521971,119.003824 433.527963,175.817549 C420.507324,175.82951 407.486684,175.825024 394.466045,175.817549 C386.814248,150.197549 379.16245,124.583529 371.522636,98.9695098 C371.480692,124.583529 371.516644,150.203529 371.50466,175.825024 C359.071238,175.825024 346.637816,175.82951 334.204394,175.817549 C334.204394,119.009804 334.204394,62.1960784 334.204394,5.38833333 Z" id="Path"></path>
            <path d="M451.647803,5.38235294 C466.525965,5.38235294 481.41012,5.38235294 496.288282,5.38833333 C496.288282,62.1960784 496.288282,119.009804 496.288282,175.817549 C481.41012,175.822034 466.525965,175.822034 451.647803,175.817549 C451.647803,119.009804 451.647803,62.1960784 451.647803,5.38235294 Z" id="Path"></path>
            <path d="M735.369507,5.38833333 C750.24767,5.38384804 765.131824,5.38384804 780.009987,5.38833333 C780.009987,40.4693137 780.009987,75.5502941 780.009987,110.631275 C779.968043,124.176863 780.201731,137.734412 779.560586,151.268039 C779.332889,157.762745 776.576565,164.197647 771.747004,168.605196 C768.33755,171.900392 763.765646,173.688529 759.163782,174.549706 C753.64514,175.572353 748.01265,175.889314 742.41012,175.823529 C734.42277,175.817549 726.429427,175.82951 718.442077,175.823529 C718.436085,165.92 718.442077,156.016471 718.442077,146.112941 C721.336218,146.340196 724.272304,146.591373 727.172437,146.196667 C730.983356,145.646471 734.42277,142.578529 734.920107,138.691275 C735.55526,133.153431 735.321571,127.567745 735.369507,122.00598 C735.363515,83.1334314 735.369507,44.2608824 735.369507,5.38833333 Z" id="Path"></path>
            <path d="M809.964048,5.38833333 C831.361518,5.37637255 852.76498,5.38833333 874.168442,5.38235294 C882.683089,62.1960784 891.251664,119.003824 899.754328,175.817549 C884.570573,175.82951 869.386818,175.817549 854.209055,175.823529 C853.466045,165.650882 852.567244,155.496176 851.87217,145.323529 C846.551265,145.323529 841.242344,145.323529 835.92743,145.323529 C835.022636,155.490196 834.129827,165.650882 833.296937,175.823529 C817.933422,175.823529 802.569907,175.823529 787.212383,175.823529 C794.810253,119.015784 802.366178,62.1960784 809.964048,5.38833333 L809.964048,5.38833333 Z M843.94474,43.4296078 C840.619174,67.1717647 837.371505,90.9378431 835.274301,114.823529 C840.433422,114.817549 845.598535,114.83549 850.763648,114.811569 C848.007324,91.0694118 845.736352,67.2614706 843.94474,43.4296078 Z" id="Shape"></path>
        </g>
    </g>
</svg>